<svg xmlns="http://www.w3.org/2000/svg" viewBox="0 0 100 100" aria-label="カレオくん" role="img"><ellipse cx="50" cy="92" rx="28" ry="3" fill="rgba(0,0,0,0.08)"/><path d="M25 55 Q20 30 42 22 Q50 18 58 22 Q80 30 75 55 Q80 82 50 85 Q20 82 25 55 Z" fill="#00c896" stroke="#0D0B21" stroke-width="2.2" stroke-linejoin="round"/><ellipse cx="33" cy="52" rx="3.5" ry="2.5" fill="#ff9b8a" opacity="0.7"/><ellipse cx="67" cy="52" rx="3.5" ry="2.5" fill="#ff9b8a" opacity="0.7"/><path d="M36 38 L44 46 M36 46 L44 38" stroke="#0D0B21" stroke-width="2" stroke-linecap="round" fill="none"/><path d="M56 38 L64 46 M56 46 L64 38" stroke="#0D0B21" stroke-width="2" stroke-linecap="round" fill="none"/><path d="M40 52 Q50 64 60 52 L58 52 Q50 58 42 52 Z" stroke="#0D0B21" stroke-width="1.5" fill="#fff5b4" stroke-linejoin="round"/><path d="M50 18 Q55 10 62 14 Q58 20 50 22 Z" fill="#00a87e" stroke="#0D0B21" stroke-width="1.8" stroke-linejoin="round"/></svg>